<mxfile host="Electron" modified="2024-12-11T00:21:17.144Z" agent="Mozilla/5.0 (Windows NT 10.0; Win64; x64) AppleWebKit/537.36 (KHTML, like Gecko) draw.io/21.1.2 Chrome/106.0.5249.199 Electron/21.4.3 Safari/537.36" etag="LpRDtWqFvUBSWbNoecgS" version="21.1.2" type="device">
  <diagram id="C5RBs43oDa-KdzZeNtuy" name="Page-1">
    <mxGraphModel dx="2812" dy="2124" grid="1" gridSize="10" guides="1" tooltips="1" connect="1" arrows="1" fold="1" page="1" pageScale="1" pageWidth="827" pageHeight="1169" math="0" shadow="0">
      <root>
        <mxCell id="WIyWlLk6GJQsqaUBKTNV-0" />
        <mxCell id="WIyWlLk6GJQsqaUBKTNV-1" parent="WIyWlLk6GJQsqaUBKTNV-0" />
        <mxCell id="nZHmT-HBL0MEHLxEnrGU-78" value="" style="shape=folder;fontStyle=1;spacingTop=10;tabWidth=40;tabHeight=14;tabPosition=left;html=1;whiteSpace=wrap;shadow=1;" vertex="1" parent="WIyWlLk6GJQsqaUBKTNV-1">
          <mxGeometry x="-500" y="-930" width="1030" height="700" as="geometry" />
        </mxCell>
        <mxCell id="zkfFHV4jXpPFQw0GAbJ--0" value="Auction" style="swimlane;fontStyle=2;align=center;verticalAlign=top;childLayout=stackLayout;horizontal=1;startSize=26;horizontalStack=0;resizeParent=1;resizeLast=0;collapsible=1;marginBottom=0;rounded=0;shadow=0;strokeWidth=1;" parent="WIyWlLk6GJQsqaUBKTNV-1" vertex="1">
          <mxGeometry x="-440" y="-880" width="440" height="300" as="geometry">
            <mxRectangle x="230" y="140" width="160" height="26" as="alternateBounds" />
          </mxGeometry>
        </mxCell>
        <mxCell id="nZHmT-HBL0MEHLxEnrGU-8" value="auctionID:int" style="text;align=left;verticalAlign=top;spacingLeft=4;spacingRight=4;overflow=hidden;rotatable=0;points=[[0,0.5],[1,0.5]];portConstraint=eastwest;" vertex="1" parent="zkfFHV4jXpPFQw0GAbJ--0">
          <mxGeometry y="26" width="440" height="24" as="geometry" />
        </mxCell>
        <mxCell id="nZHmT-HBL0MEHLxEnrGU-7" value="title: string" style="text;align=left;verticalAlign=top;spacingLeft=4;spacingRight=4;overflow=hidden;rotatable=0;points=[[0,0.5],[1,0.5]];portConstraint=eastwest;" vertex="1" parent="zkfFHV4jXpPFQw0GAbJ--0">
          <mxGeometry y="50" width="440" height="20" as="geometry" />
        </mxCell>
        <mxCell id="nZHmT-HBL0MEHLxEnrGU-6" value="description:string" style="text;align=left;verticalAlign=top;spacingLeft=4;spacingRight=4;overflow=hidden;rotatable=0;points=[[0,0.5],[1,0.5]];portConstraint=eastwest;" vertex="1" parent="zkfFHV4jXpPFQw0GAbJ--0">
          <mxGeometry y="70" width="440" height="20" as="geometry" />
        </mxCell>
        <mxCell id="nZHmT-HBL0MEHLxEnrGU-5" value="startingBid: float" style="text;align=left;verticalAlign=top;spacingLeft=4;spacingRight=4;overflow=hidden;rotatable=0;points=[[0,0.5],[1,0.5]];portConstraint=eastwest;" vertex="1" parent="zkfFHV4jXpPFQw0GAbJ--0">
          <mxGeometry y="90" width="440" height="20" as="geometry" />
        </mxCell>
        <mxCell id="nZHmT-HBL0MEHLxEnrGU-4" value="startTime:datetime" style="text;align=left;verticalAlign=top;spacingLeft=4;spacingRight=4;overflow=hidden;rotatable=0;points=[[0,0.5],[1,0.5]];portConstraint=eastwest;" vertex="1" parent="zkfFHV4jXpPFQw0GAbJ--0">
          <mxGeometry y="110" width="440" height="20" as="geometry" />
        </mxCell>
        <mxCell id="nZHmT-HBL0MEHLxEnrGU-3" value="endTime:datetime&#xa;" style="text;align=left;verticalAlign=top;spacingLeft=4;spacingRight=4;overflow=hidden;rotatable=0;points=[[0,0.5],[1,0.5]];portConstraint=eastwest;" vertex="1" parent="zkfFHV4jXpPFQw0GAbJ--0">
          <mxGeometry y="130" width="440" height="20" as="geometry" />
        </mxCell>
        <mxCell id="nZHmT-HBL0MEHLxEnrGU-1" value="currentPrice:float" style="text;align=left;verticalAlign=top;spacingLeft=4;spacingRight=4;overflow=hidden;rotatable=0;points=[[0,0.5],[1,0.5]];portConstraint=eastwest;" vertex="1" parent="zkfFHV4jXpPFQw0GAbJ--0">
          <mxGeometry y="150" width="440" height="20" as="geometry" />
        </mxCell>
        <mxCell id="nZHmT-HBL0MEHLxEnrGU-0" value="status:AuctionStatus(Enum: PENDING,ACTIVE,CLOSED)" style="text;align=left;verticalAlign=top;spacingLeft=4;spacingRight=4;overflow=hidden;rotatable=0;points=[[0,0.5],[1,0.5]];portConstraint=eastwest;" vertex="1" parent="zkfFHV4jXpPFQw0GAbJ--0">
          <mxGeometry y="170" width="440" height="20" as="geometry" />
        </mxCell>
        <mxCell id="zkfFHV4jXpPFQw0GAbJ--1" value="creator : Artist" style="text;align=left;verticalAlign=top;spacingLeft=4;spacingRight=4;overflow=hidden;rotatable=0;points=[[0,0.5],[1,0.5]];portConstraint=eastwest;" parent="zkfFHV4jXpPFQw0GAbJ--0" vertex="1">
          <mxGeometry y="190" width="440" height="20" as="geometry" />
        </mxCell>
        <mxCell id="nZHmT-HBL0MEHLxEnrGU-9" value="highestBidder: User" style="text;align=left;verticalAlign=top;spacingLeft=4;spacingRight=4;overflow=hidden;rotatable=0;points=[[0,0.5],[1,0.5]];portConstraint=eastwest;" vertex="1" parent="zkfFHV4jXpPFQw0GAbJ--0">
          <mxGeometry y="210" width="440" height="30" as="geometry" />
        </mxCell>
        <mxCell id="zkfFHV4jXpPFQw0GAbJ--4" value="" style="line;html=1;strokeWidth=1;align=left;verticalAlign=middle;spacingTop=-1;spacingLeft=3;spacingRight=3;rotatable=0;labelPosition=right;points=[];portConstraint=eastwest;" parent="zkfFHV4jXpPFQw0GAbJ--0" vertex="1">
          <mxGeometry y="240" width="440" height="30" as="geometry" />
        </mxCell>
        <mxCell id="dDkhY7gSZEvB0Nm0r4al-10" value="AuctionManager" style="swimlane;fontStyle=1;align=center;verticalAlign=top;childLayout=stackLayout;horizontal=1;startSize=26;horizontalStack=0;resizeParent=1;resizeParentMax=0;resizeLast=0;collapsible=1;marginBottom=0;whiteSpace=wrap;html=1;" parent="WIyWlLk6GJQsqaUBKTNV-1" vertex="1">
          <mxGeometry x="120" y="-900" width="290" height="170" as="geometry" />
        </mxCell>
        <mxCell id="dDkhY7gSZEvB0Nm0r4al-12" value="" style="line;strokeWidth=1;fillColor=none;align=left;verticalAlign=middle;spacingTop=-1;spacingLeft=3;spacingRight=3;rotatable=0;labelPosition=right;points=[];portConstraint=eastwest;strokeColor=inherit;" parent="dDkhY7gSZEvB0Nm0r4al-10" vertex="1">
          <mxGeometry y="26" width="290" height="8" as="geometry" />
        </mxCell>
        <mxCell id="dDkhY7gSZEvB0Nm0r4al-13" value="createAuction(request:AuctionRequest):Auction" style="text;strokeColor=none;fillColor=none;align=left;verticalAlign=top;spacingLeft=4;spacingRight=4;overflow=hidden;rotatable=0;points=[[0,0.5],[1,0.5]];portConstraint=eastwest;whiteSpace=wrap;html=1;" parent="dDkhY7gSZEvB0Nm0r4al-10" vertex="1">
          <mxGeometry y="34" width="290" height="16" as="geometry" />
        </mxCell>
        <mxCell id="dDkhY7gSZEvB0Nm0r4al-29" value="startAuction(auctionId:int):void" style="text;strokeColor=none;fillColor=none;align=left;verticalAlign=top;spacingLeft=4;spacingRight=4;overflow=hidden;rotatable=0;points=[[0,0.5],[1,0.5]];portConstraint=eastwest;whiteSpace=wrap;html=1;" parent="dDkhY7gSZEvB0Nm0r4al-10" vertex="1">
          <mxGeometry y="50" width="290" height="20" as="geometry" />
        </mxCell>
        <mxCell id="dDkhY7gSZEvB0Nm0r4al-28" value="closeAuction(auctionId:int)void" style="text;strokeColor=none;fillColor=none;align=left;verticalAlign=top;spacingLeft=4;spacingRight=4;overflow=hidden;rotatable=0;points=[[0,0.5],[1,0.5]];portConstraint=eastwest;whiteSpace=wrap;html=1;" parent="dDkhY7gSZEvB0Nm0r4al-10" vertex="1">
          <mxGeometry y="70" width="290" height="20" as="geometry" />
        </mxCell>
        <mxCell id="dDkhY7gSZEvB0Nm0r4al-27" value="getAuctionDetails(auctionId:int):Auction" style="text;strokeColor=none;fillColor=none;align=left;verticalAlign=top;spacingLeft=4;spacingRight=4;overflow=hidden;rotatable=0;points=[[0,0.5],[1,0.5]];portConstraint=eastwest;whiteSpace=wrap;html=1;" parent="dDkhY7gSZEvB0Nm0r4al-10" vertex="1">
          <mxGeometry y="90" width="290" height="20" as="geometry" />
        </mxCell>
        <mxCell id="nZHmT-HBL0MEHLxEnrGU-21" value="approveRequest(requestId:int):void" style="text;strokeColor=none;fillColor=none;align=left;verticalAlign=top;spacingLeft=4;spacingRight=4;overflow=hidden;rotatable=0;points=[[0,0.5],[1,0.5]];portConstraint=eastwest;whiteSpace=wrap;html=1;" vertex="1" parent="dDkhY7gSZEvB0Nm0r4al-10">
          <mxGeometry y="110" width="290" height="20" as="geometry" />
        </mxCell>
        <mxCell id="nZHmT-HBL0MEHLxEnrGU-22" value="rejectRequest(request:AuctionRequest):void" style="text;strokeColor=none;fillColor=none;align=left;verticalAlign=top;spacingLeft=4;spacingRight=4;overflow=hidden;rotatable=0;points=[[0,0.5],[1,0.5]];portConstraint=eastwest;whiteSpace=wrap;html=1;" vertex="1" parent="dDkhY7gSZEvB0Nm0r4al-10">
          <mxGeometry y="130" width="290" height="20" as="geometry" />
        </mxCell>
        <mxCell id="nZHmT-HBL0MEHLxEnrGU-129" value="updateAuction(auctionId:int);void" style="text;strokeColor=none;fillColor=none;align=left;verticalAlign=top;spacingLeft=4;spacingRight=4;overflow=hidden;rotatable=0;points=[[0,0.5],[1,0.5]];portConstraint=eastwest;whiteSpace=wrap;html=1;" vertex="1" parent="dDkhY7gSZEvB0Nm0r4al-10">
          <mxGeometry y="150" width="290" height="20" as="geometry" />
        </mxCell>
        <mxCell id="dDkhY7gSZEvB0Nm0r4al-15" value="BidManager" style="swimlane;fontStyle=1;align=center;verticalAlign=top;childLayout=stackLayout;horizontal=1;startSize=26;horizontalStack=0;resizeParent=1;resizeParentMax=0;resizeLast=0;collapsible=1;marginBottom=0;whiteSpace=wrap;html=1;" parent="WIyWlLk6GJQsqaUBKTNV-1" vertex="1">
          <mxGeometry x="120" y="-390" width="320" height="110" as="geometry" />
        </mxCell>
        <mxCell id="dDkhY7gSZEvB0Nm0r4al-17" value="" style="line;strokeWidth=1;fillColor=none;align=left;verticalAlign=middle;spacingTop=-1;spacingLeft=3;spacingRight=3;rotatable=0;labelPosition=right;points=[];portConstraint=eastwest;strokeColor=inherit;" parent="dDkhY7gSZEvB0Nm0r4al-15" vertex="1">
          <mxGeometry y="26" width="320" height="8" as="geometry" />
        </mxCell>
        <mxCell id="dDkhY7gSZEvB0Nm0r4al-18" value="placeBid(auctionId: int,userId:int,amount:float):Bid" style="text;strokeColor=none;fillColor=none;align=left;verticalAlign=top;spacingLeft=4;spacingRight=4;overflow=hidden;rotatable=0;points=[[0,0.5],[1,0.5]];portConstraint=eastwest;whiteSpace=wrap;html=1;" parent="dDkhY7gSZEvB0Nm0r4al-15" vertex="1">
          <mxGeometry y="34" width="320" height="36" as="geometry" />
        </mxCell>
        <mxCell id="dDkhY7gSZEvB0Nm0r4al-26" value="updateBid(bidId: int, newAmount: float):void" style="text;strokeColor=none;fillColor=none;align=left;verticalAlign=top;spacingLeft=4;spacingRight=4;overflow=hidden;rotatable=0;points=[[0,0.5],[1,0.5]];portConstraint=eastwest;whiteSpace=wrap;html=1;" parent="dDkhY7gSZEvB0Nm0r4al-15" vertex="1">
          <mxGeometry y="70" width="320" height="40" as="geometry" />
        </mxCell>
        <mxCell id="dDkhY7gSZEvB0Nm0r4al-41" value="AuctionRequestService" style="swimlane;fontStyle=1;align=center;verticalAlign=top;childLayout=stackLayout;horizontal=1;startSize=26;horizontalStack=0;resizeParent=1;resizeParentMax=0;resizeLast=0;collapsible=1;marginBottom=0;whiteSpace=wrap;html=1;" parent="WIyWlLk6GJQsqaUBKTNV-1" vertex="1">
          <mxGeometry x="100" y="-710" width="340" height="60" as="geometry" />
        </mxCell>
        <mxCell id="dDkhY7gSZEvB0Nm0r4al-43" value="" style="line;strokeWidth=1;fillColor=none;align=left;verticalAlign=middle;spacingTop=-1;spacingLeft=3;spacingRight=3;rotatable=0;labelPosition=right;points=[];portConstraint=eastwest;strokeColor=inherit;" parent="dDkhY7gSZEvB0Nm0r4al-41" vertex="1">
          <mxGeometry y="26" width="340" height="8" as="geometry" />
        </mxCell>
        <mxCell id="dDkhY7gSZEvB0Nm0r4al-44" value="submitRequest(artistId:int,product:Product):AuctionRequest" style="text;strokeColor=none;fillColor=none;align=left;verticalAlign=top;spacingLeft=4;spacingRight=4;overflow=hidden;rotatable=0;points=[[0,0.5],[1,0.5]];portConstraint=eastwest;whiteSpace=wrap;html=1;" parent="dDkhY7gSZEvB0Nm0r4al-41" vertex="1">
          <mxGeometry y="34" width="340" height="26" as="geometry" />
        </mxCell>
        <mxCell id="dDkhY7gSZEvB0Nm0r4al-2" value="Bid" style="swimlane;fontStyle=1;align=center;verticalAlign=top;childLayout=stackLayout;horizontal=1;startSize=26;horizontalStack=0;resizeParent=1;resizeParentMax=0;resizeLast=0;collapsible=1;marginBottom=0;whiteSpace=wrap;html=1;" parent="WIyWlLk6GJQsqaUBKTNV-1" vertex="1">
          <mxGeometry x="-440" y="-420" width="440" height="170" as="geometry" />
        </mxCell>
        <mxCell id="dDkhY7gSZEvB0Nm0r4al-3" value="bidId: int" style="text;strokeColor=none;fillColor=none;align=left;verticalAlign=top;spacingLeft=4;spacingRight=4;overflow=hidden;rotatable=0;points=[[0,0.5],[1,0.5]];portConstraint=eastwest;whiteSpace=wrap;html=1;" parent="dDkhY7gSZEvB0Nm0r4al-2" vertex="1">
          <mxGeometry y="26" width="440" height="24" as="geometry" />
        </mxCell>
        <mxCell id="dDkhY7gSZEvB0Nm0r4al-33" value="auction: Auction&lt;br&gt;" style="text;strokeColor=none;fillColor=none;align=left;verticalAlign=top;spacingLeft=4;spacingRight=4;overflow=hidden;rotatable=0;points=[[0,0.5],[1,0.5]];portConstraint=eastwest;whiteSpace=wrap;html=1;" parent="dDkhY7gSZEvB0Nm0r4al-2" vertex="1">
          <mxGeometry y="50" width="440" height="20" as="geometry" />
        </mxCell>
        <mxCell id="dDkhY7gSZEvB0Nm0r4al-32" value="bidder :user" style="text;strokeColor=none;fillColor=none;align=left;verticalAlign=top;spacingLeft=4;spacingRight=4;overflow=hidden;rotatable=0;points=[[0,0.5],[1,0.5]];portConstraint=eastwest;whiteSpace=wrap;html=1;" parent="dDkhY7gSZEvB0Nm0r4al-2" vertex="1">
          <mxGeometry y="70" width="440" height="20" as="geometry" />
        </mxCell>
        <mxCell id="dDkhY7gSZEvB0Nm0r4al-31" value="amount: float" style="text;strokeColor=none;fillColor=none;align=left;verticalAlign=top;spacingLeft=4;spacingRight=4;overflow=hidden;rotatable=0;points=[[0,0.5],[1,0.5]];portConstraint=eastwest;whiteSpace=wrap;html=1;" parent="dDkhY7gSZEvB0Nm0r4al-2" vertex="1">
          <mxGeometry y="90" width="440" height="20" as="geometry" />
        </mxCell>
        <mxCell id="dDkhY7gSZEvB0Nm0r4al-30" value="time: datetime" style="text;strokeColor=none;fillColor=none;align=left;verticalAlign=top;spacingLeft=4;spacingRight=4;overflow=hidden;rotatable=0;points=[[0,0.5],[1,0.5]];portConstraint=eastwest;whiteSpace=wrap;html=1;" parent="dDkhY7gSZEvB0Nm0r4al-2" vertex="1">
          <mxGeometry y="110" width="440" height="20" as="geometry" />
        </mxCell>
        <mxCell id="dDkhY7gSZEvB0Nm0r4al-4" value="" style="line;strokeWidth=1;fillColor=none;align=left;verticalAlign=middle;spacingTop=-1;spacingLeft=3;spacingRight=3;rotatable=0;labelPosition=right;points=[];portConstraint=eastwest;strokeColor=inherit;" parent="dDkhY7gSZEvB0Nm0r4al-2" vertex="1">
          <mxGeometry y="130" width="440" height="8" as="geometry" />
        </mxCell>
        <mxCell id="dDkhY7gSZEvB0Nm0r4al-5" value="isHigherThanCurrentBid():Boolen" style="text;strokeColor=none;fillColor=none;align=left;verticalAlign=top;spacingLeft=4;spacingRight=4;overflow=hidden;rotatable=0;points=[[0,0.5],[1,0.5]];portConstraint=eastwest;whiteSpace=wrap;html=1;" parent="dDkhY7gSZEvB0Nm0r4al-2" vertex="1">
          <mxGeometry y="138" width="440" height="32" as="geometry" />
        </mxCell>
        <mxCell id="nZHmT-HBL0MEHLxEnrGU-15" value="" style="endArrow=open;html=1;endSize=12;startArrow=diamondThin;startSize=14;startFill=0;edgeStyle=orthogonalEdgeStyle;align=left;verticalAlign=bottom;rounded=0;" edge="1" parent="WIyWlLk6GJQsqaUBKTNV-1" source="dDkhY7gSZEvB0Nm0r4al-2" target="zkfFHV4jXpPFQw0GAbJ--0">
          <mxGeometry x="-1" y="3" relative="1" as="geometry">
            <mxPoint x="-260" y="-420" as="sourcePoint" />
            <mxPoint x="-270" y="-530" as="targetPoint" />
            <Array as="points">
              <mxPoint x="-270" y="-520" />
              <mxPoint x="-220" y="-520" />
            </Array>
          </mxGeometry>
        </mxCell>
        <mxCell id="nZHmT-HBL0MEHLxEnrGU-19" value="" style="endArrow=open;endFill=1;endSize=12;html=1;rounded=0;entryX=1.01;entryY=0.247;entryDx=0;entryDy=0;entryPerimeter=0;exitX=1.011;exitY=0.19;exitDx=0;exitDy=0;exitPerimeter=0;" edge="1" parent="WIyWlLk6GJQsqaUBKTNV-1" source="dDkhY7gSZEvB0Nm0r4al-44" target="dDkhY7gSZEvB0Nm0r4al-28">
          <mxGeometry width="160" relative="1" as="geometry">
            <mxPoint x="400" y="-825.3199999999999" as="sourcePoint" />
            <mxPoint x="440" y="-710" as="targetPoint" />
            <Array as="points">
              <mxPoint x="500" y="-670" />
              <mxPoint x="500" y="-826" />
            </Array>
          </mxGeometry>
        </mxCell>
        <mxCell id="nZHmT-HBL0MEHLxEnrGU-91" value="" style="shape=folder;fontStyle=1;spacingTop=10;tabWidth=40;tabHeight=14;tabPosition=left;html=1;whiteSpace=wrap;" vertex="1" parent="WIyWlLk6GJQsqaUBKTNV-1">
          <mxGeometry x="-510" y="-180" width="1020" height="970" as="geometry" />
        </mxCell>
        <mxCell id="nZHmT-HBL0MEHLxEnrGU-92" style="edgeStyle=orthogonalEdgeStyle;rounded=0;orthogonalLoop=1;jettySize=auto;html=1;" edge="1" parent="WIyWlLk6GJQsqaUBKTNV-1" source="nZHmT-HBL0MEHLxEnrGU-35" target="nZHmT-HBL0MEHLxEnrGU-59">
          <mxGeometry relative="1" as="geometry">
            <Array as="points">
              <mxPoint x="91" y="150" />
              <mxPoint x="366" y="150" />
            </Array>
          </mxGeometry>
        </mxCell>
        <mxCell id="nZHmT-HBL0MEHLxEnrGU-94" style="edgeStyle=orthogonalEdgeStyle;rounded=0;orthogonalLoop=1;jettySize=auto;html=1;" edge="1" parent="WIyWlLk6GJQsqaUBKTNV-1" source="nZHmT-HBL0MEHLxEnrGU-35" target="nZHmT-HBL0MEHLxEnrGU-46">
          <mxGeometry relative="1" as="geometry">
            <Array as="points">
              <mxPoint x="91" y="150" />
              <mxPoint x="-215" y="150" />
            </Array>
          </mxGeometry>
        </mxCell>
        <mxCell id="nZHmT-HBL0MEHLxEnrGU-95" style="edgeStyle=orthogonalEdgeStyle;rounded=0;orthogonalLoop=1;jettySize=auto;html=1;" edge="1" parent="WIyWlLk6GJQsqaUBKTNV-1" source="nZHmT-HBL0MEHLxEnrGU-35" target="nZHmT-HBL0MEHLxEnrGU-50">
          <mxGeometry relative="1" as="geometry" />
        </mxCell>
        <mxCell id="nZHmT-HBL0MEHLxEnrGU-35" value="Account" style="swimlane;fontStyle=1;align=center;verticalAlign=top;childLayout=stackLayout;horizontal=1;startSize=26;horizontalStack=0;resizeParent=1;resizeParentMax=0;resizeLast=0;collapsible=1;marginBottom=0;whiteSpace=wrap;html=1;" vertex="1" parent="WIyWlLk6GJQsqaUBKTNV-1">
          <mxGeometry x="-14" y="-130" width="210" height="250" as="geometry" />
        </mxCell>
        <mxCell id="nZHmT-HBL0MEHLxEnrGU-54" value="accountId:int" style="text;strokeColor=none;fillColor=none;align=left;verticalAlign=top;spacingLeft=4;spacingRight=4;overflow=hidden;rotatable=0;points=[[0,0.5],[1,0.5]];portConstraint=eastwest;whiteSpace=wrap;html=1;" vertex="1" parent="nZHmT-HBL0MEHLxEnrGU-35">
          <mxGeometry y="26" width="210" height="26" as="geometry" />
        </mxCell>
        <mxCell id="nZHmT-HBL0MEHLxEnrGU-55" value="name:string" style="text;strokeColor=none;fillColor=none;align=left;verticalAlign=top;spacingLeft=4;spacingRight=4;overflow=hidden;rotatable=0;points=[[0,0.5],[1,0.5]];portConstraint=eastwest;whiteSpace=wrap;html=1;" vertex="1" parent="nZHmT-HBL0MEHLxEnrGU-35">
          <mxGeometry y="52" width="210" height="26" as="geometry" />
        </mxCell>
        <mxCell id="nZHmT-HBL0MEHLxEnrGU-56" value="email:string" style="text;strokeColor=none;fillColor=none;align=left;verticalAlign=top;spacingLeft=4;spacingRight=4;overflow=hidden;rotatable=0;points=[[0,0.5],[1,0.5]];portConstraint=eastwest;whiteSpace=wrap;html=1;" vertex="1" parent="nZHmT-HBL0MEHLxEnrGU-35">
          <mxGeometry y="78" width="210" height="26" as="geometry" />
        </mxCell>
        <mxCell id="nZHmT-HBL0MEHLxEnrGU-36" value="password:string" style="text;strokeColor=none;fillColor=none;align=left;verticalAlign=top;spacingLeft=4;spacingRight=4;overflow=hidden;rotatable=0;points=[[0,0.5],[1,0.5]];portConstraint=eastwest;whiteSpace=wrap;html=1;" vertex="1" parent="nZHmT-HBL0MEHLxEnrGU-35">
          <mxGeometry y="104" width="210" height="26" as="geometry" />
        </mxCell>
        <mxCell id="nZHmT-HBL0MEHLxEnrGU-57" value="username:string" style="text;strokeColor=none;fillColor=none;align=left;verticalAlign=top;spacingLeft=4;spacingRight=4;overflow=hidden;rotatable=0;points=[[0,0.5],[1,0.5]];portConstraint=eastwest;whiteSpace=wrap;html=1;" vertex="1" parent="nZHmT-HBL0MEHLxEnrGU-35">
          <mxGeometry y="130" width="210" height="26" as="geometry" />
        </mxCell>
        <mxCell id="nZHmT-HBL0MEHLxEnrGU-76" value="phoneNumber: int" style="text;strokeColor=none;fillColor=none;align=left;verticalAlign=top;spacingLeft=4;spacingRight=4;overflow=hidden;rotatable=0;points=[[0,0.5],[1,0.5]];portConstraint=eastwest;whiteSpace=wrap;html=1;" vertex="1" parent="nZHmT-HBL0MEHLxEnrGU-35">
          <mxGeometry y="156" width="210" height="26" as="geometry" />
        </mxCell>
        <mxCell id="nZHmT-HBL0MEHLxEnrGU-37" value="" style="line;strokeWidth=1;fillColor=none;align=left;verticalAlign=middle;spacingTop=-1;spacingLeft=3;spacingRight=3;rotatable=0;labelPosition=right;points=[];portConstraint=eastwest;strokeColor=inherit;" vertex="1" parent="nZHmT-HBL0MEHLxEnrGU-35">
          <mxGeometry y="182" width="210" height="8" as="geometry" />
        </mxCell>
        <mxCell id="nZHmT-HBL0MEHLxEnrGU-38" value="register():void" style="text;strokeColor=none;fillColor=none;align=left;verticalAlign=top;spacingLeft=4;spacingRight=4;overflow=hidden;rotatable=0;points=[[0,0.5],[1,0.5]];portConstraint=eastwest;whiteSpace=wrap;html=1;" vertex="1" parent="nZHmT-HBL0MEHLxEnrGU-35">
          <mxGeometry y="190" width="210" height="30" as="geometry" />
        </mxCell>
        <mxCell id="nZHmT-HBL0MEHLxEnrGU-39" value="delete_account(accountId:int):void" style="text;strokeColor=none;fillColor=none;align=left;verticalAlign=top;spacingLeft=4;spacingRight=4;overflow=hidden;rotatable=0;points=[[0,0.5],[1,0.5]];portConstraint=eastwest;whiteSpace=wrap;html=1;" vertex="1" parent="nZHmT-HBL0MEHLxEnrGU-35">
          <mxGeometry y="220" width="210" height="30" as="geometry" />
        </mxCell>
        <mxCell id="nZHmT-HBL0MEHLxEnrGU-41" value="&amp;lt;&amp;lt;Abstract&amp;gt;&amp;gt;" style="text;html=1;strokeColor=none;fillColor=none;align=center;verticalAlign=middle;whiteSpace=wrap;rounded=0;" vertex="1" parent="WIyWlLk6GJQsqaUBKTNV-1">
          <mxGeometry x="56" y="-150" width="60" height="30" as="geometry" />
        </mxCell>
        <mxCell id="nZHmT-HBL0MEHLxEnrGU-46" value="AdminAccount" style="swimlane;fontStyle=1;align=center;verticalAlign=top;childLayout=stackLayout;horizontal=1;startSize=26;horizontalStack=0;resizeParent=1;resizeParentMax=0;resizeLast=0;collapsible=1;marginBottom=0;whiteSpace=wrap;html=1;" vertex="1" parent="WIyWlLk6GJQsqaUBKTNV-1">
          <mxGeometry x="-330" y="200" width="230" height="138" as="geometry" />
        </mxCell>
        <mxCell id="nZHmT-HBL0MEHLxEnrGU-48" value="" style="line;strokeWidth=1;fillColor=none;align=left;verticalAlign=middle;spacingTop=-1;spacingLeft=3;spacingRight=3;rotatable=0;labelPosition=right;points=[];portConstraint=eastwest;strokeColor=inherit;" vertex="1" parent="nZHmT-HBL0MEHLxEnrGU-46">
          <mxGeometry y="26" width="230" height="8" as="geometry" />
        </mxCell>
        <mxCell id="nZHmT-HBL0MEHLxEnrGU-101" value="register():void" style="text;strokeColor=none;fillColor=none;align=left;verticalAlign=top;spacingLeft=4;spacingRight=4;overflow=hidden;rotatable=0;points=[[0,0.5],[1,0.5]];portConstraint=eastwest;whiteSpace=wrap;html=1;" vertex="1" parent="nZHmT-HBL0MEHLxEnrGU-46">
          <mxGeometry y="34" width="230" height="26" as="geometry" />
        </mxCell>
        <mxCell id="nZHmT-HBL0MEHLxEnrGU-100" value="delete_account(accountId:int):void" style="text;strokeColor=none;fillColor=none;align=left;verticalAlign=top;spacingLeft=4;spacingRight=4;overflow=hidden;rotatable=0;points=[[0,0.5],[1,0.5]];portConstraint=eastwest;whiteSpace=wrap;html=1;" vertex="1" parent="nZHmT-HBL0MEHLxEnrGU-46">
          <mxGeometry y="60" width="230" height="26" as="geometry" />
        </mxCell>
        <mxCell id="nZHmT-HBL0MEHLxEnrGU-49" value="approve_artistAccount(account_id:int)" style="text;strokeColor=none;fillColor=none;align=left;verticalAlign=top;spacingLeft=4;spacingRight=4;overflow=hidden;rotatable=0;points=[[0,0.5],[1,0.5]];portConstraint=eastwest;whiteSpace=wrap;html=1;" vertex="1" parent="nZHmT-HBL0MEHLxEnrGU-46">
          <mxGeometry y="86" width="230" height="26" as="geometry" />
        </mxCell>
        <mxCell id="nZHmT-HBL0MEHLxEnrGU-74" value="remove_account(accountId:int):void" style="text;strokeColor=none;fillColor=none;align=left;verticalAlign=top;spacingLeft=4;spacingRight=4;overflow=hidden;rotatable=0;points=[[0,0.5],[1,0.5]];portConstraint=eastwest;whiteSpace=wrap;html=1;" vertex="1" parent="nZHmT-HBL0MEHLxEnrGU-46">
          <mxGeometry y="112" width="230" height="26" as="geometry" />
        </mxCell>
        <mxCell id="nZHmT-HBL0MEHLxEnrGU-50" value="ArtistAccount" style="swimlane;fontStyle=1;align=center;verticalAlign=top;childLayout=stackLayout;horizontal=1;startSize=26;horizontalStack=0;resizeParent=1;resizeParentMax=0;resizeLast=0;collapsible=1;marginBottom=0;whiteSpace=wrap;html=1;" vertex="1" parent="WIyWlLk6GJQsqaUBKTNV-1">
          <mxGeometry x="-44" y="190" width="270" height="294" as="geometry" />
        </mxCell>
        <mxCell id="nZHmT-HBL0MEHLxEnrGU-51" value="gallery: gallery" style="text;strokeColor=none;fillColor=none;align=left;verticalAlign=top;spacingLeft=4;spacingRight=4;overflow=hidden;rotatable=0;points=[[0,0.5],[1,0.5]];portConstraint=eastwest;whiteSpace=wrap;html=1;" vertex="1" parent="nZHmT-HBL0MEHLxEnrGU-50">
          <mxGeometry y="26" width="270" height="26" as="geometry" />
        </mxCell>
        <mxCell id="nZHmT-HBL0MEHLxEnrGU-80" value="Biography:string" style="text;strokeColor=none;fillColor=none;align=left;verticalAlign=top;spacingLeft=4;spacingRight=4;overflow=hidden;rotatable=0;points=[[0,0.5],[1,0.5]];portConstraint=eastwest;whiteSpace=wrap;html=1;" vertex="1" parent="nZHmT-HBL0MEHLxEnrGU-50">
          <mxGeometry y="52" width="270" height="26" as="geometry" />
        </mxCell>
        <mxCell id="nZHmT-HBL0MEHLxEnrGU-81" value="profileVideo:bytes" style="text;strokeColor=none;fillColor=none;align=left;verticalAlign=top;spacingLeft=4;spacingRight=4;overflow=hidden;rotatable=0;points=[[0,0.5],[1,0.5]];portConstraint=eastwest;whiteSpace=wrap;html=1;" vertex="1" parent="nZHmT-HBL0MEHLxEnrGU-50">
          <mxGeometry y="78" width="270" height="26" as="geometry" />
        </mxCell>
        <mxCell id="nZHmT-HBL0MEHLxEnrGU-82" value="profilePicture:bytes" style="text;strokeColor=none;fillColor=none;align=left;verticalAlign=top;spacingLeft=4;spacingRight=4;overflow=hidden;rotatable=0;points=[[0,0.5],[1,0.5]];portConstraint=eastwest;whiteSpace=wrap;html=1;" vertex="1" parent="nZHmT-HBL0MEHLxEnrGU-50">
          <mxGeometry y="104" width="270" height="26" as="geometry" />
        </mxCell>
        <mxCell id="nZHmT-HBL0MEHLxEnrGU-52" value="" style="line;strokeWidth=1;fillColor=none;align=left;verticalAlign=middle;spacingTop=-1;spacingLeft=3;spacingRight=3;rotatable=0;labelPosition=right;points=[];portConstraint=eastwest;strokeColor=inherit;" vertex="1" parent="nZHmT-HBL0MEHLxEnrGU-50">
          <mxGeometry y="130" width="270" height="8" as="geometry" />
        </mxCell>
        <mxCell id="nZHmT-HBL0MEHLxEnrGU-98" value="register():void" style="text;strokeColor=none;fillColor=none;align=left;verticalAlign=top;spacingLeft=4;spacingRight=4;overflow=hidden;rotatable=0;points=[[0,0.5],[1,0.5]];portConstraint=eastwest;whiteSpace=wrap;html=1;" vertex="1" parent="nZHmT-HBL0MEHLxEnrGU-50">
          <mxGeometry y="138" width="270" height="26" as="geometry" />
        </mxCell>
        <mxCell id="nZHmT-HBL0MEHLxEnrGU-99" value="delete_account(accountId:int):void" style="text;strokeColor=none;fillColor=none;align=left;verticalAlign=top;spacingLeft=4;spacingRight=4;overflow=hidden;rotatable=0;points=[[0,0.5],[1,0.5]];portConstraint=eastwest;whiteSpace=wrap;html=1;" vertex="1" parent="nZHmT-HBL0MEHLxEnrGU-50">
          <mxGeometry y="164" width="270" height="26" as="geometry" />
        </mxCell>
        <mxCell id="nZHmT-HBL0MEHLxEnrGU-86" value="get_gallery(galleryId:int):gallery" style="text;strokeColor=none;fillColor=none;align=left;verticalAlign=top;spacingLeft=4;spacingRight=4;overflow=hidden;rotatable=0;points=[[0,0.5],[1,0.5]];portConstraint=eastwest;whiteSpace=wrap;html=1;" vertex="1" parent="nZHmT-HBL0MEHLxEnrGU-50">
          <mxGeometry y="190" width="270" height="26" as="geometry" />
        </mxCell>
        <mxCell id="nZHmT-HBL0MEHLxEnrGU-79" value="update_biography(bio:string):void" style="text;strokeColor=none;fillColor=none;align=left;verticalAlign=top;spacingLeft=4;spacingRight=4;overflow=hidden;rotatable=0;points=[[0,0.5],[1,0.5]];portConstraint=eastwest;whiteSpace=wrap;html=1;" vertex="1" parent="nZHmT-HBL0MEHLxEnrGU-50">
          <mxGeometry y="216" width="270" height="26" as="geometry" />
        </mxCell>
        <mxCell id="nZHmT-HBL0MEHLxEnrGU-83" value="update_profile_picture(picture:bytes):void" style="text;strokeColor=none;fillColor=none;align=left;verticalAlign=top;spacingLeft=4;spacingRight=4;overflow=hidden;rotatable=0;points=[[0,0.5],[1,0.5]];portConstraint=eastwest;whiteSpace=wrap;html=1;" vertex="1" parent="nZHmT-HBL0MEHLxEnrGU-50">
          <mxGeometry y="242" width="270" height="26" as="geometry" />
        </mxCell>
        <mxCell id="nZHmT-HBL0MEHLxEnrGU-84" value="update_profile_video(video:bytes):void" style="text;strokeColor=none;fillColor=none;align=left;verticalAlign=top;spacingLeft=4;spacingRight=4;overflow=hidden;rotatable=0;points=[[0,0.5],[1,0.5]];portConstraint=eastwest;whiteSpace=wrap;html=1;" vertex="1" parent="nZHmT-HBL0MEHLxEnrGU-50">
          <mxGeometry y="268" width="270" height="26" as="geometry" />
        </mxCell>
        <mxCell id="nZHmT-HBL0MEHLxEnrGU-59" value="CustomerAccount" style="swimlane;fontStyle=1;align=center;verticalAlign=top;childLayout=stackLayout;horizontal=1;startSize=26;horizontalStack=0;resizeParent=1;resizeParentMax=0;resizeLast=0;collapsible=1;marginBottom=0;whiteSpace=wrap;html=1;" vertex="1" parent="WIyWlLk6GJQsqaUBKTNV-1">
          <mxGeometry x="246" y="190" width="240" height="298" as="geometry" />
        </mxCell>
        <mxCell id="nZHmT-HBL0MEHLxEnrGU-63" value="wishlist:list[product]" style="text;strokeColor=none;fillColor=none;align=left;verticalAlign=top;spacingLeft=4;spacingRight=4;overflow=hidden;rotatable=0;points=[[0,0.5],[1,0.5]];portConstraint=eastwest;whiteSpace=wrap;html=1;" vertex="1" parent="nZHmT-HBL0MEHLxEnrGU-59">
          <mxGeometry y="26" width="240" height="26" as="geometry" />
        </mxCell>
        <mxCell id="nZHmT-HBL0MEHLxEnrGU-60" value="order_history: list[order]" style="text;strokeColor=none;fillColor=none;align=left;verticalAlign=top;spacingLeft=4;spacingRight=4;overflow=hidden;rotatable=0;points=[[0,0.5],[1,0.5]];portConstraint=eastwest;whiteSpace=wrap;html=1;" vertex="1" parent="nZHmT-HBL0MEHLxEnrGU-59">
          <mxGeometry y="52" width="240" height="26" as="geometry" />
        </mxCell>
        <mxCell id="nZHmT-HBL0MEHLxEnrGU-61" value="" style="line;strokeWidth=1;fillColor=none;align=left;verticalAlign=middle;spacingTop=-1;spacingLeft=3;spacingRight=3;rotatable=0;labelPosition=right;points=[];portConstraint=eastwest;strokeColor=inherit;" vertex="1" parent="nZHmT-HBL0MEHLxEnrGU-59">
          <mxGeometry y="78" width="240" height="8" as="geometry" />
        </mxCell>
        <mxCell id="nZHmT-HBL0MEHLxEnrGU-64" value="signIn(email:string,password:string):void" style="text;strokeColor=none;fillColor=none;align=left;verticalAlign=top;spacingLeft=4;spacingRight=4;overflow=hidden;rotatable=0;points=[[0,0.5],[1,0.5]];portConstraint=eastwest;whiteSpace=wrap;html=1;" vertex="1" parent="nZHmT-HBL0MEHLxEnrGU-59">
          <mxGeometry y="86" width="240" height="26" as="geometry" />
        </mxCell>
        <mxCell id="nZHmT-HBL0MEHLxEnrGU-65" value="register():void" style="text;strokeColor=none;fillColor=none;align=left;verticalAlign=top;spacingLeft=4;spacingRight=4;overflow=hidden;rotatable=0;points=[[0,0.5],[1,0.5]];portConstraint=eastwest;whiteSpace=wrap;html=1;" vertex="1" parent="nZHmT-HBL0MEHLxEnrGU-59">
          <mxGeometry y="112" width="240" height="26" as="geometry" />
        </mxCell>
        <mxCell id="nZHmT-HBL0MEHLxEnrGU-62" value="delete_account(accountId:int):void" style="text;strokeColor=none;fillColor=none;align=left;verticalAlign=top;spacingLeft=4;spacingRight=4;overflow=hidden;rotatable=0;points=[[0,0.5],[1,0.5]];portConstraint=eastwest;whiteSpace=wrap;html=1;" vertex="1" parent="nZHmT-HBL0MEHLxEnrGU-59">
          <mxGeometry y="138" width="240" height="32" as="geometry" />
        </mxCell>
        <mxCell id="nZHmT-HBL0MEHLxEnrGU-66" value="reset_password(new_password:string)" style="text;strokeColor=none;fillColor=none;align=left;verticalAlign=top;spacingLeft=4;spacingRight=4;overflow=hidden;rotatable=0;points=[[0,0.5],[1,0.5]];portConstraint=eastwest;whiteSpace=wrap;html=1;" vertex="1" parent="nZHmT-HBL0MEHLxEnrGU-59">
          <mxGeometry y="170" width="240" height="32" as="geometry" />
        </mxCell>
        <mxCell id="nZHmT-HBL0MEHLxEnrGU-68" value="add_to_wishlist(productId:int):void" style="text;strokeColor=none;fillColor=none;align=left;verticalAlign=top;spacingLeft=4;spacingRight=4;overflow=hidden;rotatable=0;points=[[0,0.5],[1,0.5]];portConstraint=eastwest;whiteSpace=wrap;html=1;" vertex="1" parent="nZHmT-HBL0MEHLxEnrGU-59">
          <mxGeometry y="202" width="240" height="32" as="geometry" />
        </mxCell>
        <mxCell id="nZHmT-HBL0MEHLxEnrGU-69" value="remove_from_wishlist(productId:int):void" style="text;strokeColor=none;fillColor=none;align=left;verticalAlign=top;spacingLeft=4;spacingRight=4;overflow=hidden;rotatable=0;points=[[0,0.5],[1,0.5]];portConstraint=eastwest;whiteSpace=wrap;html=1;" vertex="1" parent="nZHmT-HBL0MEHLxEnrGU-59">
          <mxGeometry y="234" width="240" height="32" as="geometry" />
        </mxCell>
        <mxCell id="nZHmT-HBL0MEHLxEnrGU-70" value="view_order_history():list" style="text;strokeColor=none;fillColor=none;align=left;verticalAlign=top;spacingLeft=4;spacingRight=4;overflow=hidden;rotatable=0;points=[[0,0.5],[1,0.5]];portConstraint=eastwest;whiteSpace=wrap;html=1;" vertex="1" parent="nZHmT-HBL0MEHLxEnrGU-59">
          <mxGeometry y="266" width="240" height="32" as="geometry" />
        </mxCell>
        <mxCell id="nZHmT-HBL0MEHLxEnrGU-102" value="Report" style="swimlane;fontStyle=1;align=center;verticalAlign=top;childLayout=stackLayout;horizontal=1;startSize=26;horizontalStack=0;resizeParent=1;resizeParentMax=0;resizeLast=0;collapsible=1;marginBottom=0;whiteSpace=wrap;html=1;" vertex="1" parent="WIyWlLk6GJQsqaUBKTNV-1">
          <mxGeometry x="-460" y="488" width="400" height="294" as="geometry" />
        </mxCell>
        <mxCell id="nZHmT-HBL0MEHLxEnrGU-103" value="reportId:int" style="text;strokeColor=none;fillColor=none;align=left;verticalAlign=top;spacingLeft=4;spacingRight=4;overflow=hidden;rotatable=0;points=[[0,0.5],[1,0.5]];portConstraint=eastwest;whiteSpace=wrap;html=1;" vertex="1" parent="nZHmT-HBL0MEHLxEnrGU-102">
          <mxGeometry y="26" width="400" height="26" as="geometry" />
        </mxCell>
        <mxCell id="nZHmT-HBL0MEHLxEnrGU-107" value="reporter_id:int" style="text;strokeColor=none;fillColor=none;align=left;verticalAlign=top;spacingLeft=4;spacingRight=4;overflow=hidden;rotatable=0;points=[[0,0.5],[1,0.5]];portConstraint=eastwest;whiteSpace=wrap;html=1;" vertex="1" parent="nZHmT-HBL0MEHLxEnrGU-102">
          <mxGeometry y="52" width="400" height="26" as="geometry" />
        </mxCell>
        <mxCell id="nZHmT-HBL0MEHLxEnrGU-108" value="reported_account_id:int" style="text;strokeColor=none;fillColor=none;align=left;verticalAlign=top;spacingLeft=4;spacingRight=4;overflow=hidden;rotatable=0;points=[[0,0.5],[1,0.5]];portConstraint=eastwest;whiteSpace=wrap;html=1;" vertex="1" parent="nZHmT-HBL0MEHLxEnrGU-102">
          <mxGeometry y="78" width="400" height="26" as="geometry" />
        </mxCell>
        <mxCell id="nZHmT-HBL0MEHLxEnrGU-109" value="content:string" style="text;strokeColor=none;fillColor=none;align=left;verticalAlign=top;spacingLeft=4;spacingRight=4;overflow=hidden;rotatable=0;points=[[0,0.5],[1,0.5]];portConstraint=eastwest;whiteSpace=wrap;html=1;" vertex="1" parent="nZHmT-HBL0MEHLxEnrGU-102">
          <mxGeometry y="104" width="400" height="26" as="geometry" />
        </mxCell>
        <mxCell id="nZHmT-HBL0MEHLxEnrGU-110" value="status:EUM(PENDING,REVIEWED,RESOLVED)" style="text;strokeColor=none;fillColor=none;align=left;verticalAlign=top;spacingLeft=4;spacingRight=4;overflow=hidden;rotatable=0;points=[[0,0.5],[1,0.5]];portConstraint=eastwest;whiteSpace=wrap;html=1;" vertex="1" parent="nZHmT-HBL0MEHLxEnrGU-102">
          <mxGeometry y="130" width="400" height="26" as="geometry" />
        </mxCell>
        <mxCell id="nZHmT-HBL0MEHLxEnrGU-111" value="adminId:int" style="text;strokeColor=none;fillColor=none;align=left;verticalAlign=top;spacingLeft=4;spacingRight=4;overflow=hidden;rotatable=0;points=[[0,0.5],[1,0.5]];portConstraint=eastwest;whiteSpace=wrap;html=1;" vertex="1" parent="nZHmT-HBL0MEHLxEnrGU-102">
          <mxGeometry y="156" width="400" height="26" as="geometry" />
        </mxCell>
        <mxCell id="nZHmT-HBL0MEHLxEnrGU-104" value="" style="line;strokeWidth=1;fillColor=none;align=left;verticalAlign=middle;spacingTop=-1;spacingLeft=3;spacingRight=3;rotatable=0;labelPosition=right;points=[];portConstraint=eastwest;strokeColor=inherit;" vertex="1" parent="nZHmT-HBL0MEHLxEnrGU-102">
          <mxGeometry y="182" width="400" height="8" as="geometry" />
        </mxCell>
        <mxCell id="nZHmT-HBL0MEHLxEnrGU-105" value="submit_report(reporterId:int,reported_account_id:int,content:string):void" style="text;strokeColor=none;fillColor=none;align=left;verticalAlign=top;spacingLeft=4;spacingRight=4;overflow=hidden;rotatable=0;points=[[0,0.5],[1,0.5]];portConstraint=eastwest;whiteSpace=wrap;html=1;" vertex="1" parent="nZHmT-HBL0MEHLxEnrGU-102">
          <mxGeometry y="190" width="400" height="26" as="geometry" />
        </mxCell>
        <mxCell id="nZHmT-HBL0MEHLxEnrGU-112" value="assign_to_admin(adminId:int):void" style="text;strokeColor=none;fillColor=none;align=left;verticalAlign=top;spacingLeft=4;spacingRight=4;overflow=hidden;rotatable=0;points=[[0,0.5],[1,0.5]];portConstraint=eastwest;whiteSpace=wrap;html=1;" vertex="1" parent="nZHmT-HBL0MEHLxEnrGU-102">
          <mxGeometry y="216" width="400" height="26" as="geometry" />
        </mxCell>
        <mxCell id="nZHmT-HBL0MEHLxEnrGU-113" value="update_status(new_status):void" style="text;strokeColor=none;fillColor=none;align=left;verticalAlign=top;spacingLeft=4;spacingRight=4;overflow=hidden;rotatable=0;points=[[0,0.5],[1,0.5]];portConstraint=eastwest;whiteSpace=wrap;html=1;" vertex="1" parent="nZHmT-HBL0MEHLxEnrGU-102">
          <mxGeometry y="242" width="400" height="26" as="geometry" />
        </mxCell>
        <mxCell id="nZHmT-HBL0MEHLxEnrGU-120" value="moderate_content(reportId:int):void" style="text;strokeColor=none;fillColor=none;align=left;verticalAlign=top;spacingLeft=4;spacingRight=4;overflow=hidden;rotatable=0;points=[[0,0.5],[1,0.5]];portConstraint=eastwest;whiteSpace=wrap;html=1;" vertex="1" parent="nZHmT-HBL0MEHLxEnrGU-102">
          <mxGeometry y="268" width="400" height="26" as="geometry" />
        </mxCell>
        <mxCell id="nZHmT-HBL0MEHLxEnrGU-114" value="" style="endArrow=open;html=1;endSize=12;startArrow=diamondThin;startSize=14;startFill=0;edgeStyle=orthogonalEdgeStyle;align=left;verticalAlign=bottom;rounded=0;exitX=0.5;exitY=0;exitDx=0;exitDy=0;" edge="1" parent="WIyWlLk6GJQsqaUBKTNV-1" source="nZHmT-HBL0MEHLxEnrGU-102" target="nZHmT-HBL0MEHLxEnrGU-46">
          <mxGeometry x="-1" y="3" relative="1" as="geometry">
            <mxPoint x="-295" y="430" as="sourcePoint" />
            <mxPoint x="-135" y="430" as="targetPoint" />
          </mxGeometry>
        </mxCell>
        <mxCell id="nZHmT-HBL0MEHLxEnrGU-115" value="" style="endArrow=open;html=1;endSize=12;startArrow=diamondThin;startSize=14;startFill=0;edgeStyle=orthogonalEdgeStyle;align=left;verticalAlign=bottom;rounded=0;" edge="1" parent="WIyWlLk6GJQsqaUBKTNV-1" source="nZHmT-HBL0MEHLxEnrGU-102" target="nZHmT-HBL0MEHLxEnrGU-50">
          <mxGeometry x="-1" y="3" relative="1" as="geometry">
            <mxPoint x="-44" y="590" as="sourcePoint" />
            <mxPoint x="116" y="590" as="targetPoint" />
          </mxGeometry>
        </mxCell>
        <mxCell id="nZHmT-HBL0MEHLxEnrGU-116" value="" style="endArrow=open;html=1;endSize=12;startArrow=diamondThin;startSize=14;startFill=0;edgeStyle=orthogonalEdgeStyle;align=left;verticalAlign=bottom;rounded=0;" edge="1" parent="WIyWlLk6GJQsqaUBKTNV-1" source="nZHmT-HBL0MEHLxEnrGU-91" target="nZHmT-HBL0MEHLxEnrGU-46">
          <mxGeometry x="-1" y="3" relative="1" as="geometry">
            <mxPoint x="-300" y="430" as="sourcePoint" />
            <mxPoint x="-140" y="430" as="targetPoint" />
            <Array as="points">
              <mxPoint x="-300" />
              <mxPoint x="-300" />
            </Array>
          </mxGeometry>
        </mxCell>
        <mxCell id="nZHmT-HBL0MEHLxEnrGU-117" value="" style="endArrow=open;html=1;endSize=12;startArrow=diamondThin;startSize=14;startFill=0;edgeStyle=orthogonalEdgeStyle;align=left;verticalAlign=bottom;rounded=0;" edge="1" parent="WIyWlLk6GJQsqaUBKTNV-1" source="nZHmT-HBL0MEHLxEnrGU-102" target="nZHmT-HBL0MEHLxEnrGU-59">
          <mxGeometry x="-1" y="3" relative="1" as="geometry">
            <mxPoint x="86" y="670" as="sourcePoint" />
            <mxPoint x="246" y="670" as="targetPoint" />
            <Array as="points">
              <mxPoint x="340" y="635" />
            </Array>
          </mxGeometry>
        </mxCell>
        <mxCell id="nZHmT-HBL0MEHLxEnrGU-121" value="" style="endArrow=open;endFill=1;endSize=12;html=1;rounded=0;entryX=1;entryY=0.5;entryDx=0;entryDy=0;" edge="1" parent="WIyWlLk6GJQsqaUBKTNV-1" source="dDkhY7gSZEvB0Nm0r4al-10" target="nZHmT-HBL0MEHLxEnrGU-7">
          <mxGeometry width="160" relative="1" as="geometry">
            <mxPoint x="-10" y="-780" as="sourcePoint" />
            <mxPoint x="150" y="-780" as="targetPoint" />
            <Array as="points">
              <mxPoint x="40" y="-820" />
            </Array>
          </mxGeometry>
        </mxCell>
        <mxCell id="nZHmT-HBL0MEHLxEnrGU-122" value="1" style="text;html=1;strokeColor=none;fillColor=none;align=center;verticalAlign=middle;whiteSpace=wrap;rounded=0;" vertex="1" parent="WIyWlLk6GJQsqaUBKTNV-1">
          <mxGeometry x="90" y="-840" width="20" height="10" as="geometry" />
        </mxCell>
        <mxCell id="nZHmT-HBL0MEHLxEnrGU-123" value="1..*" style="text;html=1;strokeColor=none;fillColor=none;align=center;verticalAlign=middle;whiteSpace=wrap;rounded=0;" vertex="1" parent="WIyWlLk6GJQsqaUBKTNV-1">
          <mxGeometry x="6" y="-840" width="30" height="10" as="geometry" />
        </mxCell>
        <mxCell id="nZHmT-HBL0MEHLxEnrGU-124" value="manage" style="text;html=1;strokeColor=none;fillColor=none;align=center;verticalAlign=middle;whiteSpace=wrap;rounded=0;" vertex="1" parent="WIyWlLk6GJQsqaUBKTNV-1">
          <mxGeometry x="30" y="-820" width="60" height="30" as="geometry" />
        </mxCell>
        <mxCell id="nZHmT-HBL0MEHLxEnrGU-125" value="" style="endArrow=open;endFill=1;endSize=12;html=1;rounded=0;" edge="1" parent="WIyWlLk6GJQsqaUBKTNV-1" source="dDkhY7gSZEvB0Nm0r4al-15" target="dDkhY7gSZEvB0Nm0r4al-2">
          <mxGeometry width="160" relative="1" as="geometry">
            <mxPoint x="60" y="-360" as="sourcePoint" />
            <mxPoint x="220" y="-360" as="targetPoint" />
          </mxGeometry>
        </mxCell>
        <mxCell id="nZHmT-HBL0MEHLxEnrGU-126" value="1" style="text;html=1;strokeColor=none;fillColor=none;align=center;verticalAlign=middle;whiteSpace=wrap;rounded=0;" vertex="1" parent="WIyWlLk6GJQsqaUBKTNV-1">
          <mxGeometry x="100" y="-350" width="20" height="10" as="geometry" />
        </mxCell>
        <mxCell id="nZHmT-HBL0MEHLxEnrGU-127" value="1..*" style="text;html=1;strokeColor=none;fillColor=none;align=center;verticalAlign=middle;whiteSpace=wrap;rounded=0;" vertex="1" parent="WIyWlLk6GJQsqaUBKTNV-1">
          <mxGeometry x="6" y="-350" width="30" height="10" as="geometry" />
        </mxCell>
        <mxCell id="nZHmT-HBL0MEHLxEnrGU-128" value="manage" style="text;html=1;strokeColor=none;fillColor=none;align=center;verticalAlign=middle;whiteSpace=wrap;rounded=0;" vertex="1" parent="WIyWlLk6GJQsqaUBKTNV-1">
          <mxGeometry x="36" y="-330" width="60" height="30" as="geometry" />
        </mxCell>
      </root>
    </mxGraphModel>
  </diagram>
</mxfile>
